<mxfile host="app.diagrams.net" modified="2024-06-27T08:07:50.989Z" agent="Mozilla/5.0 (Macintosh; Intel Mac OS X 10_15_7) AppleWebKit/537.36 (KHTML, like Gecko) Chrome/126.0.0.0 Safari/537.36" etag="Su06kPSWI_o266OFu-PJ" version="24.6.3" type="device">
  <diagram id="C5RBs43oDa-KdzZeNtuy" name="Page-1">
    <mxGraphModel dx="822" dy="1642" grid="1" gridSize="10" guides="1" tooltips="1" connect="1" arrows="1" fold="1" page="1" pageScale="1" pageWidth="827" pageHeight="1169" math="0" shadow="0">
      <root>
        <mxCell id="WIyWlLk6GJQsqaUBKTNV-0" />
        <mxCell id="WIyWlLk6GJQsqaUBKTNV-1" parent="WIyWlLk6GJQsqaUBKTNV-0" />
        <mxCell id="WIyWlLk6GJQsqaUBKTNV-2" value="" style="rounded=0;html=1;jettySize=auto;orthogonalLoop=1;fontSize=11;endArrow=block;endFill=0;endSize=8;strokeWidth=1;shadow=0;labelBackgroundColor=none;edgeStyle=orthogonalEdgeStyle;" parent="WIyWlLk6GJQsqaUBKTNV-1" source="WIyWlLk6GJQsqaUBKTNV-3" edge="1">
          <mxGeometry relative="1" as="geometry">
            <mxPoint x="110" y="250" as="targetPoint" />
            <Array as="points">
              <mxPoint x="110" y="210" />
            </Array>
          </mxGeometry>
        </mxCell>
        <mxCell id="fMM5NE8pV7-07rERz2uC-22" style="edgeStyle=orthogonalEdgeStyle;rounded=0;orthogonalLoop=1;jettySize=auto;html=1;" edge="1" parent="WIyWlLk6GJQsqaUBKTNV-1" source="WIyWlLk6GJQsqaUBKTNV-3">
          <mxGeometry relative="1" as="geometry">
            <mxPoint x="740" y="30" as="targetPoint" />
          </mxGeometry>
        </mxCell>
        <mxCell id="fMM5NE8pV7-07rERz2uC-34" style="edgeStyle=orthogonalEdgeStyle;rounded=0;orthogonalLoop=1;jettySize=auto;html=1;entryX=0;entryY=0.5;entryDx=0;entryDy=0;" edge="1" parent="WIyWlLk6GJQsqaUBKTNV-1" source="WIyWlLk6GJQsqaUBKTNV-3" target="fMM5NE8pV7-07rERz2uC-25">
          <mxGeometry relative="1" as="geometry" />
        </mxCell>
        <mxCell id="WIyWlLk6GJQsqaUBKTNV-3" value="Create inputs&lt;div&gt;Num1 = int(input)&lt;/div&gt;&lt;div&gt;Num2 = int(input)&lt;/div&gt;&lt;div&gt;Num3&amp;nbsp; = int(input)&lt;/div&gt;" style="rounded=1;whiteSpace=wrap;html=1;fontSize=12;glass=0;strokeWidth=1;shadow=0;" parent="WIyWlLk6GJQsqaUBKTNV-1" vertex="1">
          <mxGeometry x="80" y="-10" width="280" height="80" as="geometry" />
        </mxCell>
        <mxCell id="fMM5NE8pV7-07rERz2uC-2" style="edgeStyle=orthogonalEdgeStyle;rounded=0;orthogonalLoop=1;jettySize=auto;html=1;entryX=0;entryY=0.5;entryDx=0;entryDy=0;" edge="1" parent="WIyWlLk6GJQsqaUBKTNV-1" source="fMM5NE8pV7-07rERz2uC-4" target="fMM5NE8pV7-07rERz2uC-11">
          <mxGeometry relative="1" as="geometry">
            <mxPoint x="440" y="325" as="targetPoint" />
          </mxGeometry>
        </mxCell>
        <mxCell id="fMM5NE8pV7-07rERz2uC-41" style="edgeStyle=orthogonalEdgeStyle;rounded=0;orthogonalLoop=1;jettySize=auto;html=1;entryX=1;entryY=1;entryDx=0;entryDy=0;shape=flexArrow;" edge="1" parent="WIyWlLk6GJQsqaUBKTNV-1" source="fMM5NE8pV7-07rERz2uC-4" target="fMM5NE8pV7-07rERz2uC-36">
          <mxGeometry relative="1" as="geometry">
            <Array as="points">
              <mxPoint x="180" y="240" />
              <mxPoint x="1410" y="240" />
            </Array>
          </mxGeometry>
        </mxCell>
        <mxCell id="fMM5NE8pV7-07rERz2uC-4" value="Define &quot;minval&quot; as with our starter value&lt;div&gt;&amp;nbsp;&lt;/div&gt;" style="rounded=1;whiteSpace=wrap;html=1;" vertex="1" parent="WIyWlLk6GJQsqaUBKTNV-1">
          <mxGeometry x="40" y="265" width="280" height="60" as="geometry" />
        </mxCell>
        <mxCell id="fMM5NE8pV7-07rERz2uC-5" style="edgeStyle=orthogonalEdgeStyle;rounded=0;orthogonalLoop=1;jettySize=auto;html=1;" edge="1" parent="WIyWlLk6GJQsqaUBKTNV-1" source="fMM5NE8pV7-07rERz2uC-7">
          <mxGeometry relative="1" as="geometry">
            <mxPoint x="120" y="365" as="targetPoint" />
          </mxGeometry>
        </mxCell>
        <mxCell id="fMM5NE8pV7-07rERz2uC-6" style="edgeStyle=orthogonalEdgeStyle;rounded=0;orthogonalLoop=1;jettySize=auto;html=1;entryX=0.5;entryY=0;entryDx=0;entryDy=0;" edge="1" parent="WIyWlLk6GJQsqaUBKTNV-1" source="fMM5NE8pV7-07rERz2uC-7" target="fMM5NE8pV7-07rERz2uC-9">
          <mxGeometry relative="1" as="geometry" />
        </mxCell>
        <mxCell id="fMM5NE8pV7-07rERz2uC-7" value="&quot;Minval&quot;= num2 only if its less than num1" style="rounded=1;whiteSpace=wrap;html=1;" vertex="1" parent="WIyWlLk6GJQsqaUBKTNV-1">
          <mxGeometry x="320" y="375" width="270" height="50" as="geometry" />
        </mxCell>
        <mxCell id="fMM5NE8pV7-07rERz2uC-8" style="edgeStyle=orthogonalEdgeStyle;rounded=0;orthogonalLoop=1;jettySize=auto;html=1;entryX=0.146;entryY=1.017;entryDx=0;entryDy=0;entryPerimeter=0;exitX=0;exitY=0.5;exitDx=0;exitDy=0;" edge="1" parent="WIyWlLk6GJQsqaUBKTNV-1" source="fMM5NE8pV7-07rERz2uC-9" target="fMM5NE8pV7-07rERz2uC-4">
          <mxGeometry relative="1" as="geometry">
            <mxPoint x="80" y="365" as="targetPoint" />
          </mxGeometry>
        </mxCell>
        <mxCell id="fMM5NE8pV7-07rERz2uC-9" value="&quot;Minval&quot;= num3 only if less than num3" style="rounded=1;whiteSpace=wrap;html=1;" vertex="1" parent="WIyWlLk6GJQsqaUBKTNV-1">
          <mxGeometry x="320" y="455" width="270" height="40" as="geometry" />
        </mxCell>
        <mxCell id="fMM5NE8pV7-07rERz2uC-10" style="edgeStyle=orthogonalEdgeStyle;rounded=0;orthogonalLoop=1;jettySize=auto;html=1;" edge="1" parent="WIyWlLk6GJQsqaUBKTNV-1" source="fMM5NE8pV7-07rERz2uC-11" target="fMM5NE8pV7-07rERz2uC-7">
          <mxGeometry relative="1" as="geometry" />
        </mxCell>
        <mxCell id="fMM5NE8pV7-07rERz2uC-11" value="&quot;minval&quot; = num1&quot;" style="rounded=1;whiteSpace=wrap;html=1;" vertex="1" parent="WIyWlLk6GJQsqaUBKTNV-1">
          <mxGeometry x="440" y="265" width="210" height="60" as="geometry" />
        </mxCell>
        <mxCell id="fMM5NE8pV7-07rERz2uC-12" style="edgeStyle=orthogonalEdgeStyle;rounded=0;orthogonalLoop=1;jettySize=auto;html=1;entryX=0;entryY=0.5;entryDx=0;entryDy=0;" edge="1" parent="WIyWlLk6GJQsqaUBKTNV-1" source="fMM5NE8pV7-07rERz2uC-14" target="fMM5NE8pV7-07rERz2uC-21">
          <mxGeometry relative="1" as="geometry">
            <mxPoint x="1160" y="60" as="targetPoint" />
          </mxGeometry>
        </mxCell>
        <mxCell id="fMM5NE8pV7-07rERz2uC-39" style="edgeStyle=orthogonalEdgeStyle;rounded=0;orthogonalLoop=1;jettySize=auto;html=1;entryX=0.5;entryY=1;entryDx=0;entryDy=0;shape=flexArrow;" edge="1" parent="WIyWlLk6GJQsqaUBKTNV-1" source="fMM5NE8pV7-07rERz2uC-14" target="fMM5NE8pV7-07rERz2uC-36">
          <mxGeometry relative="1" as="geometry">
            <Array as="points">
              <mxPoint x="900" y="-150" />
              <mxPoint x="1350" y="-150" />
            </Array>
          </mxGeometry>
        </mxCell>
        <mxCell id="fMM5NE8pV7-07rERz2uC-14" value="Define &quot;Maxval&quot; as with our starter value&lt;div&gt;&amp;nbsp;&lt;/div&gt;" style="rounded=1;whiteSpace=wrap;html=1;" vertex="1" parent="WIyWlLk6GJQsqaUBKTNV-1">
          <mxGeometry x="760" width="280" height="60" as="geometry" />
        </mxCell>
        <mxCell id="fMM5NE8pV7-07rERz2uC-15" style="edgeStyle=orthogonalEdgeStyle;rounded=0;orthogonalLoop=1;jettySize=auto;html=1;" edge="1" parent="WIyWlLk6GJQsqaUBKTNV-1" source="fMM5NE8pV7-07rERz2uC-17">
          <mxGeometry relative="1" as="geometry">
            <mxPoint x="840" y="100" as="targetPoint" />
          </mxGeometry>
        </mxCell>
        <mxCell id="fMM5NE8pV7-07rERz2uC-16" style="edgeStyle=orthogonalEdgeStyle;rounded=0;orthogonalLoop=1;jettySize=auto;html=1;entryX=0.5;entryY=0;entryDx=0;entryDy=0;" edge="1" parent="WIyWlLk6GJQsqaUBKTNV-1" source="fMM5NE8pV7-07rERz2uC-17" target="fMM5NE8pV7-07rERz2uC-19">
          <mxGeometry relative="1" as="geometry" />
        </mxCell>
        <mxCell id="fMM5NE8pV7-07rERz2uC-17" value="&quot;Maxval&quot;= num2 only if its less than num1" style="rounded=1;whiteSpace=wrap;html=1;" vertex="1" parent="WIyWlLk6GJQsqaUBKTNV-1">
          <mxGeometry x="1040" y="110" width="270" height="50" as="geometry" />
        </mxCell>
        <mxCell id="fMM5NE8pV7-07rERz2uC-18" style="edgeStyle=orthogonalEdgeStyle;rounded=0;orthogonalLoop=1;jettySize=auto;html=1;entryX=0.146;entryY=1.017;entryDx=0;entryDy=0;entryPerimeter=0;exitX=0;exitY=0.5;exitDx=0;exitDy=0;" edge="1" parent="WIyWlLk6GJQsqaUBKTNV-1" source="fMM5NE8pV7-07rERz2uC-19" target="fMM5NE8pV7-07rERz2uC-14">
          <mxGeometry relative="1" as="geometry">
            <mxPoint x="800" y="100" as="targetPoint" />
          </mxGeometry>
        </mxCell>
        <mxCell id="fMM5NE8pV7-07rERz2uC-19" value="&quot;Maxval&quot;= num3 only if less than num3" style="rounded=1;whiteSpace=wrap;html=1;" vertex="1" parent="WIyWlLk6GJQsqaUBKTNV-1">
          <mxGeometry x="1040" y="190" width="270" height="40" as="geometry" />
        </mxCell>
        <mxCell id="fMM5NE8pV7-07rERz2uC-20" style="edgeStyle=orthogonalEdgeStyle;rounded=0;orthogonalLoop=1;jettySize=auto;html=1;" edge="1" parent="WIyWlLk6GJQsqaUBKTNV-1" source="fMM5NE8pV7-07rERz2uC-21" target="fMM5NE8pV7-07rERz2uC-17">
          <mxGeometry relative="1" as="geometry" />
        </mxCell>
        <mxCell id="fMM5NE8pV7-07rERz2uC-21" value="&quot;Maxval = num1&quot;" style="rounded=1;whiteSpace=wrap;html=1;" vertex="1" parent="WIyWlLk6GJQsqaUBKTNV-1">
          <mxGeometry x="1160" width="210" height="60" as="geometry" />
        </mxCell>
        <mxCell id="fMM5NE8pV7-07rERz2uC-23" style="edgeStyle=orthogonalEdgeStyle;rounded=0;orthogonalLoop=1;jettySize=auto;html=1;entryX=0;entryY=0.5;entryDx=0;entryDy=0;" edge="1" parent="WIyWlLk6GJQsqaUBKTNV-1" source="fMM5NE8pV7-07rERz2uC-25" target="fMM5NE8pV7-07rERz2uC-32">
          <mxGeometry relative="1" as="geometry">
            <mxPoint x="710" y="-380" as="targetPoint" />
          </mxGeometry>
        </mxCell>
        <mxCell id="fMM5NE8pV7-07rERz2uC-37" style="edgeStyle=orthogonalEdgeStyle;rounded=0;orthogonalLoop=1;jettySize=auto;html=1;entryX=0;entryY=0.5;entryDx=0;entryDy=0;shape=flexArrow;" edge="1" parent="WIyWlLk6GJQsqaUBKTNV-1" source="fMM5NE8pV7-07rERz2uC-25" target="fMM5NE8pV7-07rERz2uC-36">
          <mxGeometry relative="1" as="geometry">
            <Array as="points">
              <mxPoint x="450" y="-600" />
              <mxPoint x="940" y="-600" />
              <mxPoint x="940" y="-555" />
            </Array>
          </mxGeometry>
        </mxCell>
        <mxCell id="fMM5NE8pV7-07rERz2uC-25" value="Define &quot;Median&quot; as with our starter value&lt;div&gt;&amp;nbsp;&lt;/div&gt;" style="rounded=1;whiteSpace=wrap;html=1;" vertex="1" parent="WIyWlLk6GJQsqaUBKTNV-1">
          <mxGeometry x="310" y="-440" width="280" height="60" as="geometry" />
        </mxCell>
        <mxCell id="fMM5NE8pV7-07rERz2uC-26" style="edgeStyle=orthogonalEdgeStyle;rounded=0;orthogonalLoop=1;jettySize=auto;html=1;" edge="1" parent="WIyWlLk6GJQsqaUBKTNV-1" source="fMM5NE8pV7-07rERz2uC-28">
          <mxGeometry relative="1" as="geometry">
            <mxPoint x="390" y="-340" as="targetPoint" />
          </mxGeometry>
        </mxCell>
        <mxCell id="fMM5NE8pV7-07rERz2uC-27" style="edgeStyle=orthogonalEdgeStyle;rounded=0;orthogonalLoop=1;jettySize=auto;html=1;entryX=0.5;entryY=0;entryDx=0;entryDy=0;" edge="1" parent="WIyWlLk6GJQsqaUBKTNV-1" source="fMM5NE8pV7-07rERz2uC-28" target="fMM5NE8pV7-07rERz2uC-30">
          <mxGeometry relative="1" as="geometry" />
        </mxCell>
        <mxCell id="fMM5NE8pV7-07rERz2uC-28" value="&quot;Median&quot;= num2 only if its less than num1" style="rounded=1;whiteSpace=wrap;html=1;" vertex="1" parent="WIyWlLk6GJQsqaUBKTNV-1">
          <mxGeometry x="590" y="-330" width="270" height="50" as="geometry" />
        </mxCell>
        <mxCell id="fMM5NE8pV7-07rERz2uC-29" style="edgeStyle=orthogonalEdgeStyle;rounded=0;orthogonalLoop=1;jettySize=auto;html=1;entryX=0.146;entryY=1.017;entryDx=0;entryDy=0;entryPerimeter=0;exitX=0;exitY=0.5;exitDx=0;exitDy=0;" edge="1" parent="WIyWlLk6GJQsqaUBKTNV-1" source="fMM5NE8pV7-07rERz2uC-30" target="fMM5NE8pV7-07rERz2uC-25">
          <mxGeometry relative="1" as="geometry">
            <mxPoint x="350" y="-340" as="targetPoint" />
          </mxGeometry>
        </mxCell>
        <mxCell id="fMM5NE8pV7-07rERz2uC-30" value="&quot;Median&quot;= num3 only if less than num3" style="rounded=1;whiteSpace=wrap;html=1;" vertex="1" parent="WIyWlLk6GJQsqaUBKTNV-1">
          <mxGeometry x="590" y="-250" width="270" height="40" as="geometry" />
        </mxCell>
        <mxCell id="fMM5NE8pV7-07rERz2uC-31" style="edgeStyle=orthogonalEdgeStyle;rounded=0;orthogonalLoop=1;jettySize=auto;html=1;" edge="1" parent="WIyWlLk6GJQsqaUBKTNV-1" source="fMM5NE8pV7-07rERz2uC-32" target="fMM5NE8pV7-07rERz2uC-28">
          <mxGeometry relative="1" as="geometry" />
        </mxCell>
        <mxCell id="fMM5NE8pV7-07rERz2uC-32" value="&quot;Median = num1&quot;" style="rounded=1;whiteSpace=wrap;html=1;" vertex="1" parent="WIyWlLk6GJQsqaUBKTNV-1">
          <mxGeometry x="710" y="-440" width="210" height="60" as="geometry" />
        </mxCell>
        <mxCell id="fMM5NE8pV7-07rERz2uC-36" value="&lt;font style=&quot;font-size: 36px;&quot;&gt;print(minval, median, maxval)&lt;/font&gt;" style="rounded=1;whiteSpace=wrap;html=1;" vertex="1" parent="WIyWlLk6GJQsqaUBKTNV-1">
          <mxGeometry x="1320" y="-760" width="330" height="220" as="geometry" />
        </mxCell>
      </root>
    </mxGraphModel>
  </diagram>
</mxfile>
